<?xml version="1.0" encoding="utf-8"?>
<!-- Generator: Adobe Illustrator 22.1.0, SVG Export Plug-In . SVG Version: 6.00 Build 0)  -->
<svg version="1.1" id="Capa_1" xmlns="http://www.w3.org/2000/svg" xmlns:xlink="http://www.w3.org/1999/xlink" x="0px" y="0px"
	 viewBox="0 0 512 512" style="enable-background:new 0 0 512 512;" xml:space="preserve">
<style type="text/css">
	.st0{fill:#FFFFFF;}
</style>
<g>
	<g>
		<path class="st0" d="M143,347.7h16.3H437c6.7,0,12.6-4.4,14.5-10.8l59.8-200.9c1.4-4.6,0.5-9.6-2.4-13.4
			c-2.9-3.8-7.4-6.1-12.2-6.1h-386L90.4,47.9c-1.9-6.4-7.8-10.8-14.5-10.8H15.2C6.8,37.1,0,43.9,0,52.2c0,8.4,6.8,15.2,15.2,15.2
			h49.4l20.3,68.2c0.1,0.2,0.1,0.4,0.2,0.7l54,181.2c-30.8,2.1-55.2,27.8-55.2,59.1c0,32.7,26.6,59.2,59.2,59.2h15.1
			c6.6,22.6,27.4,39.1,52.1,39.1c24.7,0,45.5-16.5,52.1-39.1h80.5c6.6,22.6,27.4,39.1,52.1,39.1c24.7,0,45.5-16.5,52.1-39.1h19.5
			c8.4,0,15.2-6.8,15.2-15.2s-6.8-15.2-15.2-15.2h-19.5c-6.6-22.6-27.4-39.1-52.1-39.1c-24.7,0-45.5,16.5-52.1,39.1h-80.5
			c-6.6-22.6-27.4-39.1-52.1-39.1s-45.5,16.5-52.1,39.1H143c-15.9,0-28.9-13-28.9-28.9C114.1,360.6,127.1,347.7,143,347.7z
			 M365.5,146.8h110.9l-20.9,70.1h-90.1V146.8z M365.5,247.2h81l-20.9,70.1h-60.1V247.2z M253.3,146.8h81.9v70.1h-81.9L253.3,146.8
			L253.3,146.8z M253.3,247.2h81.9v70.1h-81.9L253.3,247.2L253.3,247.2z M223,317.3L223,317.3h-52.3l-20.9-70.1H223V317.3z
			 M119.8,146.8H223v70.1h-82.3L119.8,146.8z M394.9,396.7c13.2,0,23.9,10.7,23.9,23.9s-10.7,23.9-23.9,23.9s-23.9-10.7-23.9-23.9
			S381.7,396.7,394.9,396.7z M210.2,396.7c13.2,0,23.9,10.7,23.9,23.9s-10.7,23.9-23.9,23.9s-23.9-10.7-23.9-23.9
			S197,396.7,210.2,396.7z"/>
	</g>
</g>
</svg>
